HIERARCHY
ROOT pelvis
{
  OFFSET 0 100 0
  CHANNELS 6 Xposition Yposition Zposition Zrotation Xrotation Yrotation
  JOINT pelvis_right_femur
  {
    OFFSET -10.78128 -3.44521 -0.5502486
    CHANNELS 3 Zrotation Xrotation Yrotation
    JOINT right_femur_tibia
    {
      OFFSET -0.8047443 -44.0398 -0.1307829
      CHANNELS 3 Zrotation Xrotation Yrotation
      JOINT right_tibia_foot
      {
        OFFSET 3.006224 -47.83518 -5
        CHANNELS 3 Zrotation Xrotation Yrotation
        End Site
        {
          OFFSET 0 -5 15
        }
      }
    }
  }
  JOINT pelvis_left_femur
  {
    OFFSET 10.78128 -3.44521 -0.5502486
    CHANNELS 3 Zrotation Xrotation Yrotation
    JOINT left_femur_tibia
    {
      OFFSET 0.8047443 -44.0398 -0.1307829
      CHANNELS 3 Zrotation Xrotation Yrotation
      JOINT left_tibia_foot
      {
        OFFSET -4.370144 -48.10324 -4.275266
        CHANNELS 3 Zrotation Xrotation Yrotation
        End Site
        {
          OFFSET 0 -5 15
        }
      }
    }
  }
  JOINT pelvis_spine1
  {
    OFFSET 0 6.468898 -3.129235
    CHANNELS 3 Zrotation Xrotation Yrotation
    JOINT spine1
    {
      OFFSET 0 23.15396 4.99043
      CHANNELS 3 Zrotation Xrotation Yrotation
      JOINT spine2
      {
        OFFSET 0 20.79997 -5.064912
        CHANNELS 3 Zrotation Xrotation Yrotation
        JOINT neck
        {
          OFFSET 0 14.38658 9.616178
          CHANNELS 3 Zrotation Xrotation Yrotation
          End Site
          {
            OFFSET 0 20 0
          }
        }
      }
      JOINT right_manubrium
      {
        OFFSET -5.722621 16.35077 3.967754
        CHANNELS 3 Zrotation Xrotation Yrotation
        JOINT right_clavicle
        {
          OFFSET -13.16364 1.694482 -4.693211
          CHANNELS 3 Zrotation Xrotation Yrotation
          JOINT right_humerus
          {
            OFFSET -28.5034 -0.3100689 -2.792744
            CHANNELS 3 Zrotation Xrotation Yrotation
            JOINT right_radius
            {
              OFFSET -25.15693 0.02248979 -1.271978
              CHANNELS 3 Zrotation Xrotation Yrotation
              End Site
              {
                OFFSET -15 0 0
              }
            }
          }
        }
      }
      JOINT left_manubrium
      {
        OFFSET 5.722621 16.35077 3.967754
        CHANNELS 3 Zrotation Xrotation Yrotation
        JOINT left_clavicle
        {
          OFFSET 13.16364 1.694482 -4.693211
          CHANNELS 3 Zrotation Xrotation Yrotation
          JOINT left_humerus
          {
            OFFSET 29.39168 -1.063119 -2.237045
            CHANNELS 3 Zrotation Xrotation Yrotation
            JOINT left_radius
            {
              OFFSET 24.59957 -0.9528479 0.9047498
              CHANNELS 3 Zrotation Xrotation Yrotation
              End Site
              {
                OFFSET 15 -0 -0
              }
            }
          }
        }
      }
    }
  }
}
MOTION
Frames: 15
Frame Time: 0.0416666666667
26.25951 105.0579 232.7872 1.671887 -6.315928 0.6569863 1.231475 10.19502 6.834005 -2.557754e-09 33.90977 3.108683e-08 6.12757 -11.22398 -2.788938 -3.419328 -16.25236 -9.616897 5.813107e-09 19.256 -4.147632e-10 -3.4826 -9.138668 20.35499 -1.655112 -0.5519607 8.264789 -1.045124 9.563172 -2.857988 2.84589 21.496 5.518001 1.777752 -17.34314 8.572808 2.001772 -21.30902 10.77468 80.95949 24.03844 -6.084265 4.932908e-09 -5.051225e-09 25.03217 -23.06214 12.79126 12.85031 3.914722 -13.96348 -3.001892 -93.06522 21.75198 25.18202 2.236974e-09 -5.602426e-09 -11.0357 -0.1314846 7.351377 14.04501
27.45506 105.4074 239.0417 1.93495 -6.766233 0.8962778 0.6450978 8.88081 6.873902 -6.232722e-09 40.68796 3.421281e-08 6.149585 -9.120493 -3.317383 -4.498024 -13.12375 -10.63928 1.776302e-08 20.50952 1.558983e-09 -3.182853 -9.400783 20.24081 -1.954544 -0.7692336 7.813548 -1.164968 9.581307 -2.93947 2.837471 21.74293 5.667351 1.814772 -17.16348 8.729086 2.31012 -20.45724 10.67763 81.34448 24.1847 -6.894393 3.249776e-09 -7.541981e-09 23.55298 -22.58514 12.49424 12.26461 3.696261 -13.8704 -3.155041 -92.0372 22.25124 24.009 2.687691e-09 -6.822903e-09 -10.99505 0.1166045 7.633259 13.80018
28.62669 106.1376 245.034 2.22508 -7.400219 1.404847 0.07772024 5.816025 6.774672 -1.319337e-08 48.06589 4.027259e-08 6.166459 -7.304493 -4.256426 -5.467039 -9.29351 -11.46755 1.694011e-08 21.0039 9.255786e-09 -2.7621 -10.28768 19.90058 -2.340585 -0.6634496 7.143007 -1.226571 9.630508 -3.225047 2.80192 22.14996 5.839524 1.756248 -16.8694 8.959933 2.612292 -19.50227 10.61768 82.3992 24.56907 -8.119361 2.01869e-09 -1.112114e-08 21.85436 -22.1237 12.4194 11.68418 3.511011 -14.03971 -3.482998 -90.83187 22.89801 22.10123 1.843484e-09 -6.077083e-09 -11.62327 0.3945893 7.844252 13.56711
29.72758 107.0675 250.6051 2.371955 -7.933258 2.140117 -0.1600539 1.118356 6.555133 -2.0079e-08 53.40789 4.495968e-08 5.816908 -6.678297 -5.430057 -6.013493 -4.914794 -12.06355 2.825056e-09 20.75427 2.496973e-08 -2.379344 -11.48223 19.22201 -2.629368 -0.3065619 6.251022 -1.092291 9.581473 -3.740367 2.745234 22.53881 5.900559 1.563306 -16.53758 9.159308 2.838143 -18.48631 10.53535 83.62767 25.13877 -9.661804 1.830066e-09 -1.571663e-08 19.99844 -21.1558 12.5088 10.9035 3.389508 -14.45557 -3.847348 -89.28316 23.68922 19.60696 -8.703229e-10 -3.11694e-09 -12.74752 0.7058246 8.137415 13.21875
30.74544 107.9826 255.8072 2.387341 -8.170757 3.040748 -0.09999815 -4.288698 6.130794 -2.342641e-08 55.64258 4.609855e-08 5.212982 -6.672184 -6.502413 -6.18549 -0.59457 -12.39847 -1.688955e-08 19.62092 4.029261e-08 -2.123178 -12.90413 18.3783 -2.778272 0.1536495 5.308852 -0.8280838 9.421955 -4.334041 2.697995 22.83784 5.905582 1.353123 -16.32176 9.324197 2.895868 -17.55564 10.41769 84.93008 25.65747 -11.27594 1.787396e-09 -1.904069e-08 18.23177 -20.08858 12.62835 10.16605 3.443378 -15.03618 -4.17562 -87.78157 24.3204 16.96997 -4.048246e-09 8.722316e-10 -14.19596 1.116109 8.481173 12.68349
31.68128 108.6457 260.8176 2.337553 -8.078802 4.016265 0.1531309 -9.611829 5.546775 -2.147314e-08 53.96144 4.176249e-08 4.604902 -7.050713 -7.338256 -6.090511 3.295418 -12.45389 -3.328154e-08 17.65553 4.676193e-08 -1.994676 -14.53259 17.67055 -2.831297 0.5927114 4.460995 -0.4906521 9.151647 -4.899817 2.690662 23.02289 5.883905 1.196119 -16.19583 9.443993 2.758669 -16.73023 10.25117 86.13346 26.0033 -12.80272 1.140818e-09 -1.940441e-08 16.65099 -19.22473 12.7224 9.606102 3.776981 -15.72583 -4.393339 -86.46119 24.63051 14.28906 -6.40953e-09 4.572769e-09 -15.96017 1.610447 8.796608 11.95421
32.50317 108.8537 265.6023 2.264348 -7.769584 4.959208 0.5385944 -14.74909 4.968308 -1.734341e-08 48.91113 3.357788e-08 3.871159 -7.814548 -7.88506 -5.892118 6.747022 -12.48115 -4.75782e-08 15.41346 4.911049e-08 -1.771516 -16.29262 17.35704 -2.843167 1.012446 3.719585 -0.08451202 8.836424 -5.408856 2.67484 23.07868 5.881749 1.148678 -16.12795 9.475982 2.594195 -15.93834 10.08449 86.73424 26.34159 -14.20342 3.128459e-09 -1.889297e-08 15.08012 -18.29851 12.64811 9.045413 4.351733 -16.50301 -4.493508 -85.00561 24.73869 11.50852 -7.616917e-09 7.054338e-09 -17.96277 2.191268 9.172733 10.99815
33.23582 108.6084 270.5963 2.176117 -7.212738 5.797793 0.9121852 -18.80502 4.24555 -1.211289e-08 41.64692 2.46619e-08 3.412535 -8.347462 -8.286888 -5.643172 9.90486 -12.16782 -4.510609e-08 13.63239 3.473968e-08 -1.844321 -17.84097 17.07946 -2.839874 1.182199 3.140651 0.2971753 8.416259 -5.842329 2.747346 23.14813 5.8367 1.153146 -16.09751 9.487605 2.254661 -15.10435 9.837716 87.70976 26.49213 -15.62232 -6.820584e-10 -1.328587e-08 13.50045 -17.8942 12.63327 8.743775 5.103355 -17.29212 -4.426536 -84.02344 24.49505 8.745365 -7.404399e-09 8.447529e-09 -20.13763 2.848522 9.409564 9.962863
33.84141 107.8903 275.672 2.12211 -6.687914 6.481441 1.270792 -22.25248 3.60789 -1.028833e-08 33.73447 1.73775e-08 2.772093 -9.20187 -8.50392 -5.459773 12.64076 -11.9674 -3.877963e-08 12.63346 2.079981e-08 -1.729849 -19.17447 17.11241 -2.866096 1.284793 2.666661 0.6799775 8.032008 -6.219347 2.783235 23.23782 5.795821 1.219645 -16.06105 9.417223 1.998088 -14.26818 9.639394 88.28207 26.74901 -16.97739 -3.269521e-09 -8.477894e-09 11.81124 -17.30784 12.45069 8.302213 5.87421 -18.11521 -4.295501 -82.91927 24.23708 5.993235 -6.486605e-09 8.690537e-09 -22.33198 3.596862 9.784274 8.77517
34.29793 106.8357 280.7523 2.065748 -6.233989 6.998087 1.57606 -24.87911 3.027961 -1.086028e-08 26.85405 1.191899e-08 1.892105 -10.19667 -8.58357 -5.328236 14.98045 -11.88667 -2.851711e-08 12.78277 1.041328e-08 -1.577047 -19.98749 17.11016 -2.883893 1.288498 2.256916 1.027262 7.672665 -6.534137 2.782638 23.37316 5.722385 1.290445 -16.03586 9.279842 1.823038 -13.43664 9.473317 88.61077 27.09023 -18.21714 -6.278683e-09 -5.044287e-09 10.03665 -16.49717 12.13017 7.709571 6.487567 -18.86161 -4.130879 -81.72825 24.03791 3.468434 -5.588606e-09 8.493743e-09 -24.23859 4.422168 10.29297 7.521526
34.64648 105.6882 286.0185 1.950312 -5.845836 7.378255 1.840357 -26.14705 2.515265 -1.113249e-08 22.07898 7.821307e-09 0.9806546 -11.08829 -8.645499 -5.165028 16.85034 -11.78458 -1.08699e-08 14.20025 -3.163528e-10 -1.74359 -19.98795 16.73796 -2.832879 1.109598 1.924529 1.289917 7.296974 -6.758305 2.819463 23.57537 5.541228 1.28454 -16.03393 9.135144 1.630362 -12.68239 9.289135 89.1689 27.31776 -19.23302 -1.342557e-08 -9.459476e-10 8.44737 -15.70843 11.84733 7.137192 6.82105 -19.36467 -3.921754 -80.92879 23.92407 1.59933 -5.254206e-09 8.69075e-09 -25.42985 5.179459 10.80084 6.451653
34.95827 104.7768 291.685 1.782209 -5.653034 7.700103 2.073214 -26.16961 2.261739 -8.841069e-09 21.02714 3.55598e-09 0.2071318 -11.27132 -8.86845 -5.033468 18.66421 -11.80666 1.123115e-08 17.11162 -8.835984e-09 -2.317779 -19.13653 16.01518 -2.703606 0.7574524 1.612498 1.444553 6.985392 -6.893349 2.929845 23.84123 5.282653 1.204357 -16.08033 9.060845 1.513595 -11.99893 9.103063 90.21163 27.36955 -20.08657 -2.282075e-08 3.251325e-09 7.111356 -15.0031 11.6993 6.644289 6.780128 -19.51209 -3.719868 -80.80033 24.00643 0.6608393 -5.910623e-09 9.303312e-09 -25.50253 5.693546 11.22108 5.830596
35.26974 104.3255 297.6989 1.611852 -5.743173 7.97262 2.417978 -24.81502 2.438535 -4.963444e-09 22.49621 -1.535942e-09 -0.5734133 -10.95333 -9.096547 -4.901102 19.68445 -11.99541 3.143242e-08 21.59653 -1.49301e-08 -2.932421 -17.54665 15.48242 -2.500751 0.3721228 1.427064 1.511673 6.867791 -6.876043 3.069688 24.05918 4.987784 1.136972 -16.16258 8.978208 1.53796 -11.52474 8.992523 90.96511 27.33475 -20.50103 -2.990595e-08 6.262366e-09 6.199474 -14.26002 11.54965 6.187327 6.428953 -19.33026 -3.549621 -81.12873 24.23934 0.8101781 -6.939619e-09 9.576735e-09 -24.33737 5.927883 11.60059 5.597186
35.57877 104.4426 303.9413 1.436098 -6.110931 8.135057 3.011594 -22.28971 3.001028 -7.092686e-10 24.52935 -6.88465e-09 -1.454169 -10.59091 -9.27322 -4.687062 19.46019 -12.19231 4.754438e-08 27.99272 -2.288525e-08 -3.554796 -15.42924 15.33667 -2.197715 0.1019672 1.434032 1.531578 6.943757 -6.695756 3.244672 24.2688 4.657542 1.119874 -16.28723 8.859599 1.640704 -11.27688 8.994731 91.38329 27.25595 -20.49238 -3.414687e-08 8.792397e-09 5.722396 -13.49367 11.36834 5.75577 5.908451 -18.95465 -3.400179 -81.98881 24.58657 1.868102 -7.790524e-09 9.564753e-09 -22.27912 5.937152 11.96824 5.639719
35.86583 105.0577 310.1759 1.427698 -6.837589 8.130945 3.628836 -18.5025 3.761389 2.811741e-10 26.23951 -9.404388e-09 -2.248956 -10.61042 -9.293663 -4.50896 17.21922 -12.25618 6.09467e-08 35.41907 -3.869554e-08 -3.932274 -13.34368 16.03361 -1.953517 0.115456 1.76156 1.447873 7.224295 -6.294212 3.433582 24.62142 4.376543 1.202038 -16.35915 8.72614 1.780317 -11.35106 9.160328 91.44169 27.24334 -19.90775 -3.574745e-08 1.13517e-08 5.854151 -13.05887 11.12292 5.516893 5.401445 -18.5027 -3.279348 -83.48136 25.01908 3.559463 -7.330997e-09 8.985693e-09 -19.84674 5.748047 12.30184 5.909491
